<?xml version="1.0" encoding="UTF-8"?>
<svg width="353px" height="52px" viewBox="0 0 353 52" version="1.1" xmlns="http://www.w3.org/2000/svg" xmlns:xlink="http://www.w3.org/1999/xlink">
    <!-- Generator: Sketch 55 (78076) - https://sketchapp.com -->
    <title>Group 3 Copy</title>
    <desc>Created with Sketch.</desc>
    <g id="Page-1" stroke="none" stroke-width="1" fill="none" fill-rule="evenodd">
        <g id="Landing-Page" transform="translate(-77.000000, -49.000000)" fill="#009BC7">
            <g id="Group-3-Copy" transform="translate(76.000000, 38.000000)">
                <text id="Challenge{" font-family="Inconsolata-Bold, Inconsolata" font-size="60" font-weight="bold">
                    <tspan x="0" y="52">Challenge{</tspan>
                </text>
                <path d="M312.431205,18 L317.848858,18 L317.848858,40.3381672 C318.561239,47.4046879 316.755354,51.8107533 312.431205,53.5563635 C308.344397,54.8120131 303.867329,53.4022104 299,49.3269556 L302.460421,45.2695251 C305.845109,48.0305915 308.339995,48.9768915 309.945078,48.1084251 C311.64463,47.1784909 312.473339,44.5333938 312.431205,40.1731338 L312.431205,18 Z" id="Rectangle"></path>
                <path d="M294.235413,56.2445679 L324.843166,56.1716309 C335.322003,56.1251883 341.573011,55.8681082 343.596191,55.4003906 C346.709473,54.6806641 350.012556,51.3491369 347.734375,47.1855469 C345.47858,43.0628694 336.218693,39.3620573 332.381348,36 C327.554486,31.7709862 329.537605,24.5681158 332.381348,20.9365234 C336.317154,15.9103144 347.132807,15.3941147 353.492422,21.648624 C353.492422,21.648624 352.328083,23.4781119 351.147889,26.8912351 C346.125866,21.7316486 340.838379,21.7316486 337.829869,24.3820662 C336.063438,25.938245 334.239378,29.5966693 336.983747,32.9615199 C339.712459,36.3071726 352.067722,40.2571908 353.492422,46.0219696 C356.253223,57.1930283 347.208571,59.9894663 345.750977,60.5556641 C343.623698,61.3819987 336.654428,61.6824137 324.843166,61.4569092 L294.082153,61.5583496 L294.235413,56.2445679 Z" id="Rectangle"></path>
                <polygon id="Rectangle" points="293.909729 13.7781982 329 13.7781982 329 19.3109741 294.315186 19.1864014"></polygon>
            </g>
        </g>
    </g>
</svg>